<svg xmlns="http://www.w3.org/2000/svg" xmlns:xlink="http://www.w3.org/1999/xlink" width="140" zoomAndPan="magnify" viewBox="0 0 104.88 30.000001" height="40" preserveAspectRatio="xMidYMid meet" version="1.0"><defs><g/></defs><g fill="#ffffff" fill-opacity="1"><g transform="translate(5.380607, 12.156619)"><g><path d="M 6.296875 -1.8125 L 2.578125 -1.8125 L 1.953125 0 L 0.4375 0 L 3.609375 -8.859375 L 5.28125 -8.859375 L 8.453125 0 L 6.921875 0 Z M 5.890625 -3 L 4.4375 -7.109375 L 3 -3 Z M 5.890625 -3 "/></g></g></g><g fill="#ffffff" fill-opacity="1"><g transform="translate(16.413842, 12.156619)"><g><path d="M 2.40625 -9.421875 L 2.40625 0 L 0.953125 0 L 0.953125 -9.421875 Z M 2.40625 -9.421875 "/></g></g></g><g fill="#ffffff" fill-opacity="1"><g transform="translate(21.937478, 12.156619)"><g><path d="M 7.390625 -3.6875 C 7.390625 -3.414062 7.367188 -3.175781 7.328125 -2.96875 L 1.96875 -2.96875 C 2.007812 -2.40625 2.21875 -1.953125 2.59375 -1.609375 C 2.96875 -1.273438 3.425781 -1.109375 3.96875 -1.109375 C 4.75 -1.109375 5.300781 -1.4375 5.625 -2.09375 L 7.1875 -2.09375 C 6.976562 -1.445312 6.59375 -0.914062 6.03125 -0.5 C 5.476562 -0.09375 4.789062 0.109375 3.96875 0.109375 C 3.300781 0.109375 2.703125 -0.0390625 2.171875 -0.34375 C 1.640625 -0.644531 1.222656 -1.066406 0.921875 -1.609375 C 0.617188 -2.160156 0.46875 -2.796875 0.46875 -3.515625 C 0.46875 -4.234375 0.613281 -4.863281 0.90625 -5.40625 C 1.195312 -5.957031 1.609375 -6.378906 2.140625 -6.671875 C 2.671875 -6.972656 3.28125 -7.125 3.96875 -7.125 C 4.632812 -7.125 5.222656 -6.976562 5.734375 -6.6875 C 6.253906 -6.40625 6.660156 -6.003906 6.953125 -5.484375 C 7.242188 -4.960938 7.390625 -4.363281 7.390625 -3.6875 Z M 5.875 -4.140625 C 5.863281 -4.671875 5.671875 -5.097656 5.296875 -5.421875 C 4.921875 -5.742188 4.457031 -5.90625 3.90625 -5.90625 C 3.40625 -5.90625 2.976562 -5.742188 2.625 -5.421875 C 2.269531 -5.109375 2.054688 -4.679688 1.984375 -4.140625 Z M 5.875 -4.140625 "/></g></g></g><g fill="#ffffff" fill-opacity="1"><g transform="translate(31.952771, 12.156619)"><g><path d="M 3.890625 -5.828125 L 2.59375 -5.828125 L 2.59375 0 L 1.140625 0 L 1.140625 -5.828125 L 0.3125 -5.828125 L 0.3125 -7.015625 L 1.140625 -7.015625 L 1.140625 -7.515625 C 1.140625 -8.316406 1.351562 -8.898438 1.78125 -9.265625 C 2.207031 -9.640625 2.878906 -9.828125 3.796875 -9.828125 L 3.796875 -8.625 C 3.347656 -8.625 3.035156 -8.539062 2.859375 -8.375 C 2.679688 -8.207031 2.59375 -7.921875 2.59375 -7.515625 L 2.59375 -7.015625 L 3.890625 -7.015625 Z M 3.890625 -5.828125 "/></g></g></g><g fill="#ffffff" fill-opacity="1"><g transform="translate(38.341659, 12.156619)"><g><path d="M 3.890625 -5.828125 L 2.59375 -5.828125 L 2.59375 0 L 1.140625 0 L 1.140625 -5.828125 L 0.3125 -5.828125 L 0.3125 -7.015625 L 1.140625 -7.015625 L 1.140625 -7.515625 C 1.140625 -8.316406 1.351562 -8.898438 1.78125 -9.265625 C 2.207031 -9.640625 2.878906 -9.828125 3.796875 -9.828125 L 3.796875 -8.625 C 3.347656 -8.625 3.035156 -8.539062 2.859375 -8.375 C 2.679688 -8.207031 2.59375 -7.921875 2.59375 -7.515625 L 2.59375 -7.015625 L 3.890625 -7.015625 Z M 3.890625 -5.828125 "/></g></g></g><g fill="#000000" fill-opacity="1"><g transform="translate(44.721584, 12.156619)"><g/></g></g><g fill="#ffffff" fill-opacity="1"><g transform="translate(5.380607, 23.769522)"><g><path d="M 7.359375 -6.296875 C 7.128906 -6.742188 6.8125 -7.078125 6.40625 -7.296875 C 6 -7.523438 5.523438 -7.640625 4.984375 -7.640625 C 4.398438 -7.640625 3.878906 -7.503906 3.421875 -7.234375 C 2.960938 -6.972656 2.601562 -6.601562 2.34375 -6.125 C 2.09375 -5.644531 1.96875 -5.082031 1.96875 -4.4375 C 1.96875 -3.800781 2.09375 -3.238281 2.34375 -2.75 C 2.601562 -2.269531 2.960938 -1.894531 3.421875 -1.625 C 3.878906 -1.363281 4.398438 -1.234375 4.984375 -1.234375 C 5.773438 -1.234375 6.414062 -1.453125 6.90625 -1.890625 C 7.40625 -2.335938 7.707031 -2.9375 7.8125 -3.6875 L 4.5 -3.6875 L 4.5 -4.859375 L 9.375 -4.859375 L 9.375 -3.71875 C 9.28125 -3.03125 9.035156 -2.394531 8.640625 -1.8125 C 8.242188 -1.238281 7.726562 -0.78125 7.09375 -0.4375 C 6.46875 -0.09375 5.765625 0.078125 4.984375 0.078125 C 4.160156 0.078125 3.40625 -0.113281 2.71875 -0.5 C 2.03125 -0.882812 1.484375 -1.421875 1.078125 -2.109375 C 0.671875 -2.796875 0.46875 -3.570312 0.46875 -4.4375 C 0.46875 -5.3125 0.671875 -6.09375 1.078125 -6.78125 C 1.484375 -7.46875 2.03125 -8.003906 2.71875 -8.390625 C 3.40625 -8.773438 4.160156 -8.96875 4.984375 -8.96875 C 5.929688 -8.96875 6.769531 -8.734375 7.5 -8.265625 C 8.238281 -7.804688 8.773438 -7.148438 9.109375 -6.296875 Z M 7.359375 -6.296875 "/></g></g></g><g fill="#ffffff" fill-opacity="1"><g transform="translate(17.380882, 23.769522)"><g><path d="M 7.3125 -7.015625 L 7.3125 0 L 5.859375 0 L 5.859375 -0.828125 C 5.628906 -0.535156 5.328125 -0.304688 4.953125 -0.140625 C 4.585938 0.0234375 4.195312 0.109375 3.78125 0.109375 C 3.226562 0.109375 2.734375 -0.00390625 2.296875 -0.234375 C 1.859375 -0.460938 1.515625 -0.800781 1.265625 -1.25 C 1.015625 -1.707031 0.890625 -2.253906 0.890625 -2.890625 L 0.890625 -7.015625 L 2.328125 -7.015625 L 2.328125 -3.109375 C 2.328125 -2.484375 2.484375 -2 2.796875 -1.65625 C 3.109375 -1.320312 3.539062 -1.15625 4.09375 -1.15625 C 4.632812 -1.15625 5.0625 -1.320312 5.375 -1.65625 C 5.695312 -2 5.859375 -2.484375 5.859375 -3.109375 L 5.859375 -7.015625 Z M 7.3125 -7.015625 "/></g></g></g><g fill="#ffffff" fill-opacity="1"><g transform="translate(27.803345, 23.769522)"><g><path d="M 1.6875 -7.953125 C 1.425781 -7.953125 1.207031 -8.039062 1.03125 -8.21875 C 0.851562 -8.394531 0.765625 -8.613281 0.765625 -8.875 C 0.765625 -9.132812 0.851562 -9.351562 1.03125 -9.53125 C 1.207031 -9.71875 1.425781 -9.8125 1.6875 -9.8125 C 1.945312 -9.8125 2.164062 -9.71875 2.34375 -9.53125 C 2.519531 -9.351562 2.609375 -9.132812 2.609375 -8.875 C 2.609375 -8.613281 2.519531 -8.394531 2.34375 -8.21875 C 2.164062 -8.039062 1.945312 -7.953125 1.6875 -7.953125 Z M 2.40625 -7.015625 L 2.40625 0 L 0.953125 0 L 0.953125 -7.015625 Z M 2.40625 -7.015625 "/></g></g></g><g fill="#ffffff" fill-opacity="1"><g transform="translate(33.326982, 23.769522)"><g><path d="M 9.453125 -7.125 C 10.003906 -7.125 10.5 -7.007812 10.9375 -6.78125 C 11.375 -6.550781 11.71875 -6.210938 11.96875 -5.765625 C 12.21875 -5.316406 12.34375 -4.773438 12.34375 -4.140625 L 12.34375 0 L 10.90625 0 L 10.90625 -3.921875 C 10.90625 -4.546875 10.742188 -5.023438 10.421875 -5.359375 C 10.109375 -5.703125 9.679688 -5.875 9.140625 -5.875 C 8.597656 -5.875 8.164062 -5.703125 7.84375 -5.359375 C 7.53125 -5.023438 7.375 -4.546875 7.375 -3.921875 L 7.375 0 L 5.9375 0 L 5.9375 -3.921875 C 5.9375 -4.546875 5.773438 -5.023438 5.453125 -5.359375 C 5.140625 -5.703125 4.710938 -5.875 4.171875 -5.875 C 3.628906 -5.875 3.195312 -5.703125 2.875 -5.359375 C 2.5625 -5.023438 2.40625 -4.546875 2.40625 -3.921875 L 2.40625 0 L 0.953125 0 L 0.953125 -7.015625 L 2.40625 -7.015625 L 2.40625 -6.21875 C 2.644531 -6.5 2.945312 -6.71875 3.3125 -6.875 C 3.675781 -7.039062 4.066406 -7.125 4.484375 -7.125 C 5.046875 -7.125 5.546875 -7.003906 5.984375 -6.765625 C 6.421875 -6.535156 6.757812 -6.195312 7 -5.75 C 7.21875 -6.164062 7.550781 -6.5 8 -6.75 C 8.445312 -7 8.929688 -7.125 9.453125 -7.125 Z M 9.453125 -7.125 "/></g></g></g><g fill="#ffffff" fill-opacity="1"><g transform="translate(48.711897, 23.769522)"><g><path d="M 0.46875 -3.546875 C 0.46875 -4.242188 0.613281 -4.863281 0.90625 -5.40625 C 1.195312 -5.957031 1.59375 -6.378906 2.09375 -6.671875 C 2.601562 -6.972656 3.164062 -7.125 3.78125 -7.125 C 4.332031 -7.125 4.8125 -7.015625 5.21875 -6.796875 C 5.632812 -6.585938 5.96875 -6.320312 6.21875 -6 L 6.21875 -7.015625 L 7.671875 -7.015625 L 7.671875 0 L 6.21875 0 L 6.21875 -1.046875 C 5.96875 -0.710938 5.628906 -0.4375 5.203125 -0.21875 C 4.785156 0 4.300781 0.109375 3.75 0.109375 C 3.15625 0.109375 2.601562 -0.0390625 2.09375 -0.34375 C 1.59375 -0.65625 1.195312 -1.085938 0.90625 -1.640625 C 0.613281 -2.203125 0.46875 -2.835938 0.46875 -3.546875 Z M 6.21875 -3.515625 C 6.21875 -3.992188 6.113281 -4.410156 5.90625 -4.765625 C 5.707031 -5.128906 5.445312 -5.40625 5.125 -5.59375 C 4.800781 -5.78125 4.457031 -5.875 4.09375 -5.875 C 3.71875 -5.875 3.367188 -5.78125 3.046875 -5.59375 C 2.722656 -5.414062 2.460938 -5.148438 2.265625 -4.796875 C 2.066406 -4.441406 1.96875 -4.023438 1.96875 -3.546875 C 1.96875 -3.054688 2.066406 -2.628906 2.265625 -2.265625 C 2.460938 -1.898438 2.722656 -1.617188 3.046875 -1.421875 C 3.378906 -1.234375 3.726562 -1.140625 4.09375 -1.140625 C 4.457031 -1.140625 4.800781 -1.234375 5.125 -1.421875 C 5.445312 -1.609375 5.707031 -1.878906 5.90625 -2.234375 C 6.113281 -2.597656 6.21875 -3.023438 6.21875 -3.515625 Z M 6.21875 -3.515625 "/></g></g></g><g fill="#ffffff" fill-opacity="1"><g transform="translate(59.503367, 23.769522)"><g><path d="M 2.40625 -6 C 2.613281 -6.351562 2.894531 -6.628906 3.25 -6.828125 C 3.601562 -7.023438 4.023438 -7.125 4.515625 -7.125 L 4.515625 -5.625 L 4.140625 -5.625 C 3.566406 -5.625 3.132812 -5.476562 2.84375 -5.1875 C 2.550781 -4.90625 2.40625 -4.40625 2.40625 -3.6875 L 2.40625 0 L 0.953125 0 L 0.953125 -7.015625 L 2.40625 -7.015625 Z M 2.40625 -6 "/></g></g></g><g fill="#ffffff" fill-opacity="1"><g transform="translate(66.553915, 23.769522)"><g><path d="M 0.46875 -3.546875 C 0.46875 -4.242188 0.613281 -4.863281 0.90625 -5.40625 C 1.195312 -5.957031 1.59375 -6.378906 2.09375 -6.671875 C 2.601562 -6.972656 3.164062 -7.125 3.78125 -7.125 C 4.332031 -7.125 4.8125 -7.015625 5.21875 -6.796875 C 5.632812 -6.585938 5.96875 -6.320312 6.21875 -6 L 6.21875 -7.015625 L 7.671875 -7.015625 L 7.671875 0 L 6.21875 0 L 6.21875 -1.046875 C 5.96875 -0.710938 5.628906 -0.4375 5.203125 -0.21875 C 4.785156 0 4.300781 0.109375 3.75 0.109375 C 3.15625 0.109375 2.601562 -0.0390625 2.09375 -0.34375 C 1.59375 -0.65625 1.195312 -1.085938 0.90625 -1.640625 C 0.613281 -2.203125 0.46875 -2.835938 0.46875 -3.546875 Z M 6.21875 -3.515625 C 6.21875 -3.992188 6.113281 -4.410156 5.90625 -4.765625 C 5.707031 -5.128906 5.445312 -5.40625 5.125 -5.59375 C 4.800781 -5.78125 4.457031 -5.875 4.09375 -5.875 C 3.71875 -5.875 3.367188 -5.78125 3.046875 -5.59375 C 2.722656 -5.414062 2.460938 -5.148438 2.265625 -4.796875 C 2.066406 -4.441406 1.96875 -4.023438 1.96875 -3.546875 C 1.96875 -3.054688 2.066406 -2.628906 2.265625 -2.265625 C 2.460938 -1.898438 2.722656 -1.617188 3.046875 -1.421875 C 3.378906 -1.234375 3.726562 -1.140625 4.09375 -1.140625 C 4.457031 -1.140625 4.800781 -1.234375 5.125 -1.421875 C 5.445312 -1.609375 5.707031 -1.878906 5.90625 -2.234375 C 6.113281 -2.597656 6.21875 -3.023438 6.21875 -3.515625 Z M 2.234375 -7.75 C 2.304688 -8.238281 2.46875 -8.609375 2.71875 -8.859375 C 2.976562 -9.109375 3.296875 -9.234375 3.671875 -9.234375 C 3.835938 -9.234375 3.976562 -9.207031 4.09375 -9.15625 C 4.21875 -9.101562 4.363281 -9.023438 4.53125 -8.921875 C 4.65625 -8.835938 4.757812 -8.773438 4.84375 -8.734375 C 4.9375 -8.691406 5.039062 -8.671875 5.15625 -8.671875 C 5.300781 -8.671875 5.421875 -8.710938 5.515625 -8.796875 C 5.609375 -8.890625 5.671875 -9.023438 5.703125 -9.203125 L 6.515625 -9.203125 C 6.441406 -8.710938 6.28125 -8.34375 6.03125 -8.09375 C 5.78125 -7.84375 5.460938 -7.71875 5.078125 -7.71875 C 4.910156 -7.71875 4.765625 -7.742188 4.640625 -7.796875 C 4.515625 -7.847656 4.375 -7.925781 4.21875 -8.03125 C 4.070312 -8.125 3.957031 -8.191406 3.875 -8.234375 C 3.789062 -8.273438 3.695312 -8.296875 3.59375 -8.296875 C 3.457031 -8.296875 3.335938 -8.25 3.234375 -8.15625 C 3.140625 -8.0625 3.078125 -7.925781 3.046875 -7.75 Z M 2.234375 -7.75 "/></g></g></g><g fill="#ffffff" fill-opacity="1"><g transform="translate(77.345386, 23.769522)"><g><path d="M 7.390625 -3.6875 C 7.390625 -3.414062 7.367188 -3.175781 7.328125 -2.96875 L 1.96875 -2.96875 C 2.007812 -2.40625 2.21875 -1.953125 2.59375 -1.609375 C 2.96875 -1.273438 3.425781 -1.109375 3.96875 -1.109375 C 4.75 -1.109375 5.300781 -1.4375 5.625 -2.09375 L 7.1875 -2.09375 C 6.976562 -1.445312 6.59375 -0.914062 6.03125 -0.5 C 5.476562 -0.09375 4.789062 0.109375 3.96875 0.109375 C 3.300781 0.109375 2.703125 -0.0390625 2.171875 -0.34375 C 1.640625 -0.644531 1.222656 -1.066406 0.921875 -1.609375 C 0.617188 -2.160156 0.46875 -2.796875 0.46875 -3.515625 C 0.46875 -4.234375 0.613281 -4.863281 0.90625 -5.40625 C 1.195312 -5.957031 1.609375 -6.378906 2.140625 -6.671875 C 2.671875 -6.972656 3.28125 -7.125 3.96875 -7.125 C 4.632812 -7.125 5.222656 -6.976562 5.734375 -6.6875 C 6.253906 -6.40625 6.660156 -6.003906 6.953125 -5.484375 C 7.242188 -4.960938 7.390625 -4.363281 7.390625 -3.6875 Z M 5.875 -4.140625 C 5.863281 -4.671875 5.671875 -5.097656 5.296875 -5.421875 C 4.921875 -5.742188 4.457031 -5.90625 3.90625 -5.90625 C 3.40625 -5.90625 2.976562 -5.742188 2.625 -5.421875 C 2.269531 -5.109375 2.054688 -4.679688 1.984375 -4.140625 Z M 5.875 -4.140625 "/></g></g></g><g fill="#ffffff" fill-opacity="1"><g transform="translate(87.360681, 23.769522)"><g><path d="M 3.5 0.109375 C 2.945312 0.109375 2.453125 0.0078125 2.015625 -0.1875 C 1.578125 -0.382812 1.226562 -0.65625 0.96875 -1 C 0.71875 -1.34375 0.585938 -1.726562 0.578125 -2.15625 L 2.078125 -2.15625 C 2.097656 -1.851562 2.238281 -1.601562 2.5 -1.40625 C 2.757812 -1.207031 3.082031 -1.109375 3.46875 -1.109375 C 3.882812 -1.109375 4.203125 -1.1875 4.421875 -1.34375 C 4.648438 -1.5 4.765625 -1.703125 4.765625 -1.953125 C 4.765625 -2.210938 4.640625 -2.40625 4.390625 -2.53125 C 4.140625 -2.65625 3.742188 -2.796875 3.203125 -2.953125 C 2.671875 -3.097656 2.238281 -3.238281 1.90625 -3.375 C 1.570312 -3.507812 1.285156 -3.71875 1.046875 -4 C 0.804688 -4.28125 0.6875 -4.648438 0.6875 -5.109375 C 0.6875 -5.484375 0.796875 -5.820312 1.015625 -6.125 C 1.234375 -6.4375 1.546875 -6.679688 1.953125 -6.859375 C 2.367188 -7.035156 2.847656 -7.125 3.390625 -7.125 C 4.179688 -7.125 4.820312 -6.921875 5.3125 -6.515625 C 5.800781 -6.117188 6.0625 -5.570312 6.09375 -4.875 L 4.640625 -4.875 C 4.617188 -5.1875 4.492188 -5.4375 4.265625 -5.625 C 4.035156 -5.8125 3.726562 -5.90625 3.34375 -5.90625 C 2.957031 -5.90625 2.660156 -5.832031 2.453125 -5.6875 C 2.253906 -5.539062 2.15625 -5.351562 2.15625 -5.125 C 2.15625 -4.9375 2.222656 -4.773438 2.359375 -4.640625 C 2.492188 -4.515625 2.65625 -4.414062 2.84375 -4.34375 C 3.039062 -4.269531 3.332031 -4.179688 3.71875 -4.078125 C 4.226562 -3.941406 4.644531 -3.800781 4.96875 -3.65625 C 5.300781 -3.519531 5.582031 -3.316406 5.8125 -3.046875 C 6.050781 -2.773438 6.175781 -2.414062 6.1875 -1.96875 C 6.1875 -1.5625 6.078125 -1.203125 5.859375 -0.890625 C 5.640625 -0.578125 5.328125 -0.332031 4.921875 -0.15625 C 4.515625 0.0195312 4.039062 0.109375 3.5 0.109375 Z M 3.5 0.109375 "/></g></g></g></svg>